<svg width="400" height="400" viewBox="0 0 400 400" fill="none" xmlns="http://www.w3.org/2000/svg">
<rect width="400" height="400" fill="white"/>
<g filter="url(#filter0_d)">
<path fill-rule="evenodd" clip-rule="evenodd" d="M311.323 128.814L298.975 138.402L279.084 153.845C276.407 140.422 268.656 128.883 257.936 121.38L296.228 91.6497L284.37 75.873C279.524 69.4221 280.738 60.1963 287.084 55.2677L315.952 93.6512C320.226 99.337 321.718 106.284 320.69 112.832C319.728 118.962 316.56 124.748 311.323 128.814Z" fill="black"/>
<path fill-rule="evenodd" clip-rule="evenodd" d="M189.951 263.048C232.66 240.603 270.692 234.257 280.286 249.672C288.165 262.33 274.76 286.336 248.52 310.922L273.429 351.535H290.394C298.197 351.752 304.461 358.232 304.461 366.213H282.431H253.223L244.221 351.535L229.787 327.998L224.145 318.803C226.135 315.491 227.291 311.608 227.291 307.445C227.291 295.384 217.672 285.605 205.803 285.605C205.145 285.605 204.501 285.668 203.858 285.726L189.951 263.048Z" fill="black"/>
<path fill-rule="evenodd" clip-rule="evenodd" d="M70.4976 123.159C72.7274 112.249 82.2347 104.048 93.6315 104.048C96.8847 104.048 99.9834 104.718 102.801 105.925C111.296 109.566 117.263 118.106 117.263 128.067V241.97C117.263 250.085 123.736 256.668 131.725 256.668C137.541 256.668 142.543 253.169 144.839 248.137C145.042 247.69 145.225 247.229 145.385 246.76L158.813 212.933L132.748 123.547C132.73 123.49 132.706 123.43 132.688 123.369C132.371 122.368 132.092 121.367 131.82 120.364C122.327 85.338 139.411 48.7742 171.355 33.7866L232.747 55.482C240.283 58.0982 244.313 66.4125 241.777 74.0766L226.23 68.4261C220.084 66.1921 213.323 69.4451 211.125 75.689C208.927 81.933 212.128 88.8084 218.272 91.0412L234.313 96.8708C231.512 104.404 223.26 108.256 215.806 105.475L198.866 99.1504C197.663 106.079 201.494 113.083 208.231 115.529L240.684 127.533C254.375 133.48 264.086 147.022 264.759 162.942C264.783 163.526 264.823 164.108 264.823 164.698C264.823 165.059 264.787 165.413 264.777 165.772C264.841 165.607 264.883 165.497 264.883 165.497H315.538V145.643C315.538 140.095 322.288 135.27 326.566 132.768L330 130.944V179.599C329.817 193.295 318.853 204.343 305.335 204.343H248.199C243.138 204.343 238.22 204.955 233.507 206.103C233.738 206.046 233.964 205.961 234.193 205.895C233.947 205.968 233.699 206.042 233.448 206.103C233.301 206.139 233.153 206.178 233.005 206.216C207.54 212.621 188.201 234.811 185.626 261.989C185.582 262.463 185.554 262.942 185.519 263.422C185.404 264.997 185.328 266.579 185.328 268.183C185.328 283.482 190.627 297.521 199.456 308.519C200.103 309.325 200.77 310.117 201.454 310.89C203.257 313.502 204.326 316.678 204.326 320.113C204.326 329.003 197.233 336.211 188.485 336.211C185.337 336.211 182.406 335.279 179.942 333.673L147.869 314.433C143.444 316.948 140.451 321.748 140.451 327.266C140.451 330.913 141.758 334.254 143.923 336.822L157.233 351.511H173.468H173.476H174.262C182.063 351.728 188.327 358.208 188.327 366.189H159.409H159.404H141.944C141.944 352.334 130.893 341.103 117.263 341.103V298.313C128.573 296.023 137.1 285.885 137.1 273.717C137.1 273.107 137.071 272.501 137.029 271.899C135.583 272.118 134.118 272.27 132.612 272.27C126.989 272.27 121.751 270.659 117.263 267.908C108.606 262.604 102.801 252.989 102.801 241.97V128.067C102.801 122.76 98.5681 118.459 93.3479 118.459C88.312 118.459 84.2067 122.465 83.9232 127.515C90.4169 132.033 94.6807 139.617 94.6807 148.22C94.6807 162.075 83.6319 173.305 70 173.305V128.067C70 126.385 70.1727 124.746 70.4976 123.159Z" fill="black"/>
</g>
<defs>
<filter id="filter0_d" x="66" y="31.7866" width="268" height="340.427" filterUnits="userSpaceOnUse" color-interpolation-filters="sRGB">
<feFlood flood-opacity="0" result="BackgroundImageFix"/>
<feColorMatrix in="SourceAlpha" type="matrix" values="0 0 0 0 0 0 0 0 0 0 0 0 0 0 0 0 0 0 127 0"/>
<feOffset dy="2"/>
<feGaussianBlur stdDeviation="2"/>
<feColorMatrix type="matrix" values="0 0 0 0 0 0 0 0 0 0 0 0 0 0 0 0 0 0 0.05 0"/>
<feBlend mode="normal" in2="BackgroundImageFix" result="effect1_dropShadow"/>
<feBlend mode="normal" in="SourceGraphic" in2="effect1_dropShadow" result="shape"/>
</filter>
</defs>
</svg>
